<svg width="24" height="24" viewBox="0 0 24 24" fill="none" xmlns="http://www.w3.org/2000/svg">
<path d="M20.5 11.722C20.5 16.8261 16.4597 20.9439 11.5 20.9439C6.54026 20.9439 2.5 16.8261 2.5 11.722C2.5 6.61787 6.54026 2.5 11.5 2.5C16.4597 2.5 20.5 6.61787 20.5 11.722Z" stroke="#929292"/>
<circle cx="11.6086" cy="11.6088" r="7.1235" stroke="#929292" stroke-width="0.7" stroke-dasharray="6 6"/>
<rect x="7.41034" y="12.8673" width="8.32184" height="0.886754" fill="#929292"/>
<rect x="7.8876" y="11.503" width="7.36688" height="0.818542" fill="#929292"/>
<path d="M15.5199 16.005H14.2964C14.1981 16.005 14.1097 15.9449 14.0748 15.8534L12.534 12.3216H10.6582L9.97163 14.0851L9.28509 15.8486C9.2513 15.9426 9.16211 16.005 9.06191 16.005H7.92088C7.84269 16.005 7.76961 15.9665 7.72481 15.9021C7.68081 15.8376 7.67098 15.7555 7.69927 15.6824L10.8175 7.5624C10.8524 7.47046 10.9408 7.41034 11.0391 7.41034H12.197C12.2933 7.41034 12.3801 7.46849 12.4166 7.55768L15.74 15.6773C15.7702 15.7508 15.7616 15.8341 15.7176 15.8997C15.6732 15.9653 15.5993 16.005 15.5199 16.005ZM10.931 11.5031H12.2952L11.9471 10.268C11.8253 9.94623 11.7176 9.64958 11.6245 9.37925C11.5522 9.63229 11.4701 9.88376 11.3782 10.1333L10.931 11.5031Z" fill="#929292"/>
</svg>
