<svg width="24" height="24" viewBox="0 0 24 24" fill="none" xmlns="http://www.w3.org/2000/svg">
<path fill-rule="evenodd" clip-rule="evenodd" d="M6.15396 15.1011C6.17174 15.1343 6.18977 15.1672 6.20809 15.2C6.31924 15.3988 6.44023 15.591 6.57031 15.7761C6.4188 15.5606 6.27961 15.3353 6.15396 15.1011ZM17.8696 8.99995C17.8349 8.93257 17.7992 8.8659 17.7623 8.79995C17.6512 8.60109 17.5302 8.40885 17.4001 8.22382C17.5733 8.47022 17.7304 8.72939 17.8696 8.99995ZM11.9683 18.8C15.0075 18.8 17.692 16.7878 18.5285 13.8708C18.6357 13.5019 19.019 13.2886 19.3896 13.3939C19.7742 13.5361 19.9756 13.8963 19.8434 14.2871H19.8433L19.8409 14.2952C18.8272 17.772 15.5912 20.2 11.9683 20.2C9.08047 20.2 6.42945 18.6051 4.97144 16.1685L4.59982 15.5475V16.2712V20.1C4.59982 20.4864 4.28628 20.8 3.90001 20.8C3.51373 20.8 3.2002 20.4864 3.2002 20.1V14.1C3.2002 13.7135 3.51373 13.4 3.90001 13.4H9.89876C10.2767 13.4 10.5648 13.703 10.5648 14.1C10.5648 14.4864 10.2513 14.8 9.86502 14.8H6.1008H5.77299L5.92295 15.0914C7.06976 17.3207 9.3969 18.8 11.9683 18.8ZM19.0288 7.83115L19.4006 8.45448V7.7287V3.89995C19.4006 3.51376 19.7157 3.19995 20.1004 3.19995C20.4883 3.19995 20.8002 3.51322 20.8002 3.89995V9.89995C20.8002 10.2864 20.4867 10.6 20.1004 10.6H14.1016C13.7172 10.6 13.4018 10.2845 13.4018 9.89995C13.4018 9.51537 13.7172 9.19995 14.1016 9.19995H17.8696H18.1974L18.0474 8.90846C16.9006 6.67925 14.5735 5.19995 12.0021 5.19995C8.99639 5.19995 6.31235 7.21228 5.47274 10.0949L5.4726 10.0954C5.36587 10.4654 4.98005 10.6808 4.60588 10.5706L4.60524 10.5704C4.23423 10.4625 4.02151 10.0747 4.12981 9.70491L4.12992 9.70453C5.14058 6.22797 8.37914 3.79995 12.0021 3.79995C14.9205 3.79995 17.5749 5.3934 19.0288 7.83115Z" fill="#929292"/>
</svg>
